<svg xmlns="http://www.w3.org/2000/svg" version="1.1" xmlns:xlink="http://www.w3.org/1999/xlink" xmlns:svgjs="http://svgjs.dev/svgjs" width="1000" height="828" viewBox="0 0 1000 828"><g transform="matrix(1,0,0,1,-0.1178873650424066,0.3352226720647309)"><svg viewBox="0 0 298 247" data-background-color="#ffffff" preserveAspectRatio="xMidYMid meet" height="828" width="1000" xmlns="http://www.w3.org/2000/svg" xmlns:xlink="http://www.w3.org/1999/xlink"><g id="tight-bounds" transform="matrix(1,0,0,1,0.035130434782644215,-0.09999999999999432)"><svg viewBox="0 0 297.9297391304347 247.2" height="247.2" width="297.9297391304347"><g><svg viewBox="0 0 297.92973913043477 247.20000000000002" height="247.2" width="297.9297391304347"><g><svg viewBox="0 0 297.92973913043477 247.20000000000002" height="247.20000000000002" width="297.92973913043477"><g id="textblocktransform"><svg viewBox="0 0 297.92973913043477 247.20000000000002" height="247.20000000000002" width="297.92973913043477" id="textblock"><g><svg viewBox="0 0 297.92973913043477 247.20000000000002" height="247.20000000000002" width="297.92973913043477"><g transform="matrix(1,0,0,1,0,0)"><svg width="297.92973913043477" viewBox="4 -28.75 34.650001525878906 28.75" height="247.20000000000002" data-palette-color="#010101"><path d="M4-3.4L4-25.3 9.85-28.75 20.2-28.75 20.2-22.85 10.5-22.85 10.5-5.65 20-5.65 20 0 9.85 0 4-3.4ZM32.15-19.45L38.65-19.45 38.65-25.3 32.8-28.75 22.45-28.75 22.45-22.85 32.15-22.85 32.15-19.45ZM38.65-3.4L38.65-17.2 22.45-17.2 22.45-11.5 32.15-11.5 32.15-5.65 22.65-5.65 22.65 0 32.8 0 38.65-3.4Z" opacity="1" transform="matrix(1,0,0,1,0,0)" fill="#010101" class="undefined-text-0" data-fill-palette-color="primary" id="text-0"></path></svg></g></svg></g></svg></g></svg></g><g></g></svg></g><defs></defs></svg><rect width="297.9297391304347" height="247.2" fill="none" stroke="none" visibility="hidden"></rect></g></svg></g></svg>